Coordinates
version=1
nRows=5
nColumns=40
inDegrees=yes

Units are S.I. units (second, meters, Newtons, ...)
Angles are in degrees.

endheader
time	pelvis_tilt	pelvis_list	pelvis_rotation	pelvis_tx	pelvis_ty	pelvis_tz	hip_flexion_r	hip_adduction_r	hip_rotation_r	knee_angle_r	knee_angle_r_beta	ankle_angle_r	subtalar_angle_r	mtp_angle_r	hip_flexion_l	hip_adduction_l	hip_rotation_l	knee_angle_l	knee_angle_l_beta	ankle_angle_l	subtalar_angle_l	mtp_angle_l	lumbar_extension	lumbar_bending	lumbar_rotation	arm_flex_r	arm_add_r	arm_rot_r	elbow_flex_r	pro_sup_r	wrist_flex_r	wrist_dev_r	arm_flex_l	arm_add_l	arm_rot_l	elbow_flex_l	pro_sup_l	wrist_flex_l	wrist_dev_l
     12.52000000	     -5.06025116	     -4.34440839	      6.10643310	      1.12163883	      0.92604129	      0.44052810	      8.40237379	     -1.44015894	    -13.19155467	     28.84998795	     28.84998795	     16.01619964	     -4.40854580	     -4.79214182	     24.47260073	     -5.31669409	      0.13840422	     24.24336211	     24.24336211	      7.55959005	    -12.71985450	      3.32305605	    -10.71532885	      2.33750682	      2.94751560	     18.52762782	    -14.56927147	     12.12016375	     74.08418655	     44.96326429	      0.00000000	      0.00000000	      2.70805160	     -9.72667452	    -15.36802906	     32.82187215	     46.43982757	      0.00000000	      0.00000000
     12.53285714	     -5.10563947	     -4.20444526	      5.94050448	      1.12155750	      0.92667787	      0.43764857	      9.65139042	     -2.19965854	    -12.87453339	     31.62364345	     31.62364345	     15.08594591	     -5.02770851	     -6.15255211	     23.94281471	     -5.05577843	     -0.10294296	     24.00129865	     24.00129865	      7.85179660	    -12.67951136	      3.35221853	    -10.65149590	      2.20927541	      3.07303757	     17.57950379	    -14.69845583	     12.50815155	     71.32101665	     45.04062740	      0.00000000	      0.00000000	      3.35071570	     -9.70217411	    -15.03972468	     33.58569739	     46.40454038	      0.00000000	      0.00000000
     12.54571429	     -5.08080103	     -4.16636099	      5.79750535	      1.12152486	      0.92748011	      0.43479871	     10.66972798	     -2.78305560	    -12.54027691	     33.84822707	     33.84822707	     12.24477588	     -6.70166987	    -12.07704744	     23.32689165	     -4.89072595	     -0.23964781	     23.71306550	     23.71306550	      8.11093594	    -12.68726039	      3.45861836	    -10.51584301	      2.27834668	      1.76081815	     18.58352664	    -13.25510853	     13.31396730	     64.00715024	     45.26894458	      0.00000000	      0.00000000	      2.48084771	    -10.33386679	    -13.28275298	     35.81772211	     46.17265615	      0.00000000	      0.00000000
     12.55857143	     -5.00316351	     -4.02181434	      5.59731247	      1.12145405	      0.92808709	      0.43192400	     12.05620816	     -3.58937969	    -12.13078972	     37.01338844	     37.01338844	     11.08094298	     -7.27696950	    -12.89919564	     22.66871266	     -4.66070021	     -0.57520360	     23.50508170	     23.50508170	      8.47294377	    -12.55054552	      3.30541132	    -10.62367488	      2.28155381	      2.02597037	     17.22978717	    -13.74141892	     13.58827652	     62.60880652	     45.29992420	      0.00000000	      0.00000000	      3.23833393	    -10.28445172	    -13.19204631	     36.61925709	     46.17568567	      0.00000000	      0.00000000
     12.57142857	     -5.00992176	     -3.90961841	      5.32703794	      1.12137628	      0.92849841	      0.42925356	     13.64884581	     -4.33763878	    -11.59453853	     40.25397733	     40.25397733	      9.51029995	     -8.01484160	    -13.98870923	     22.10050273	     -4.48347407	     -0.94414038	     23.28813227	     23.28813227	      8.76973797	    -12.44491861	      3.11726359	    -10.52496795	      2.25200533	      2.40525361	     15.89839663	    -14.17090318	     13.69825665	     60.38375865	     45.36579069	      0.00000000	      0.00000000	      3.94334748	    -10.24800535	    -12.99437693	     37.63216614	     46.16677495	      0.00000000	      0.00000000
